<svg width="48" height="48" viewBox="0 0 48 48" fill="none" xmlns="http://www.w3.org/2000/svg">
<path d="M27.0748 23.9998C27.0748 31.7317 21.0139 38 13.5372 38C6.06045 38 0 31.7336 0 23.9998C0 16.2659 6.06091 10 13.5372 10C21.0134 10 27.0748 16.2678 27.0748 23.9998ZM41.9258 23.9998C41.9258 31.2785 38.8951 37.1785 35.1569 37.1785C31.4188 37.1785 28.3881 31.2766 28.3881 23.9998C28.3881 16.723 31.4188 10.8211 35.1569 10.8211C38.8951 10.8211 41.9258 16.723 41.9258 23.9998ZM48 23.9998C48 30.5211 46.934 35.8073 45.6193 35.8073C44.3046 35.8073 43.2386 30.5192 43.2386 23.9998C43.2386 17.4803 44.3046 12.1922 45.6198 12.1922C46.9349 12.1922 48 17.4789 48 23.9998Z" fill="#1C1C1C"/>
</svg>
